<?xml version="1.0" encoding="UTF-8"?>
<!-- Generated by Pixelmator Pro 3.8 -->
<svg width="750" height="750" viewBox="0 0 750 750" xmlns="http://www.w3.org/2000/svg" xmlns:xlink="http://www.w3.org/1999/xlink">
    <g id="instagram-2-1-logo-svgrepo-com">
        <radialGradient id="radialGradient1" cx="65.860623" cy="614.184486" r="742.732829" fx="65.860623" fy="614.184486" gradientUnits="userSpaceOnUse">
            <stop offset="0.09" stop-color="#fa8f21" stop-opacity="1"/>
            <stop offset="0.78" stop-color="#d82d7e" stop-opacity="1"/>
        </radialGradient>
        <path id="Path" fill="url(#radialGradient1)" stroke="none" d="M 176.340729 624.93103 C 141.550537 623.348877 122.651535 617.559204 110.081177 612.65625 C 93.425011 606.171082 81.550102 598.451538 69.049286 585.968079 C 56.54847 573.48468 48.811523 561.609802 42.361172 544.953613 C 37.45821 532.38324 31.668541 513.484253 30.086378 478.694061 C 28.34774 441.08728 28.000011 429.803528 28.000011 334.526093 C 28.000011 239.248657 28.382513 227.982239 30.068993 190.340698 C 31.651154 155.550537 37.475597 136.686279 42.343788 124.081177 C 48.828911 107.424988 56.565857 95.55011 69.031898 83.031921 C 81.515327 70.548462 93.390244 62.794128 110.063789 56.343811 C 122.634155 51.440857 141.533173 45.651184 176.323334 44.06897 C 213.947495 42.347717 225.248642 42 320.491333 42 C 415.768738 42 427.035156 42.382507 464.676727 44.06897 C 499.466827 45.651184 518.331055 51.475586 530.936218 56.343811 C 547.592407 62.794128 559.467285 70.548462 571.968079 83.031921 C 584.468933 95.51532 592.171082 107.407593 598.65625 124.063782 C 603.559204 136.634155 609.348816 155.533203 610.93103 190.323364 C 612.652283 227.964844 613 239.231262 613 334.508698 C 613 429.751373 612.652283 441.052521 610.93103 478.694061 C 609.348816 513.484253 603.524414 532.38324 598.65625 544.953613 C 592.171082 561.609802 584.451538 573.48468 571.968079 585.968079 C 559.48468 598.451538 547.592407 606.171082 530.936218 612.65625 C 518.365845 617.559204 499.466827 623.348877 464.676727 624.93103 C 427.069916 626.652283 415.768738 627 320.491333 627 C 225.248642 627 213.947495 626.669678 176.340729 624.93103"/>
        <radialGradient id="radialGradient2" cx="433.209042" cy="595.400226" r="653.611914" fx="433.209042" fy="595.400226" gradientUnits="userSpaceOnUse">
            <stop offset="0.64" stop-color="#8c3aaa" stop-opacity="0"/>
            <stop offset="1" stop-color="#8c3aaa" stop-opacity="1"/>
        </radialGradient>
        <path id="path1" fill="url(#radialGradient2)" stroke="none" d="M 176.340729 624.93103 C 141.550537 623.348877 122.651535 617.559204 110.081177 612.65625 C 93.425011 606.171082 81.550102 598.451538 69.049286 585.968079 C 56.54847 573.48468 48.811523 561.609802 42.361172 544.953613 C 37.45821 532.38324 31.668541 513.484253 30.086378 478.694061 C 28.34774 441.08728 28.000011 429.803528 28.000011 334.526093 C 28.000011 239.248657 28.382513 227.982239 30.068993 190.340698 C 31.651154 155.550537 37.475597 136.686279 42.343788 124.081177 C 48.828911 107.424988 56.565857 95.55011 69.031898 83.031921 C 81.515327 70.548462 93.390244 62.794128 110.063789 56.343811 C 122.634155 51.440857 141.533173 45.651184 176.323334 44.06897 C 213.947495 42.347717 225.248642 42 320.491333 42 C 415.768738 42 427.035156 42.382507 464.676727 44.06897 C 499.466827 45.651184 518.331055 51.475586 530.936218 56.343811 C 547.592407 62.794128 559.467285 70.548462 571.968079 83.031921 C 584.468933 95.51532 592.171082 107.407593 598.65625 124.063782 C 603.559204 136.634155 609.348816 155.533203 610.93103 190.323364 C 612.652283 227.964844 613 239.231262 613 334.508698 C 613 429.751373 612.652283 441.052521 610.93103 478.694061 C 609.348816 513.484253 603.524414 532.38324 598.65625 544.953613 C 592.171082 561.609802 584.451538 573.48468 571.968079 585.968079 C 559.48468 598.451538 547.592407 606.171082 530.936218 612.65625 C 518.365845 617.559204 499.466827 623.348877 464.676727 624.93103 C 427.069916 626.652283 415.768738 627 320.491333 627 C 225.248642 627 213.947495 626.669678 176.340729 624.93103"/>
        <path id="path2" fill="#ffffff" stroke="none" d="M 248.676804 335.746613 C 248.676804 295.73877 281.100708 263.297516 321.108521 263.297516 C 361.116364 263.297516 393.557617 295.73877 393.557617 335.746613 C 393.557617 375.754425 361.116364 408.195709 321.108521 408.195709 C 281.100708 408.195709 248.676804 375.754425 248.676804 335.746613 M 209.512222 335.746613 C 209.512222 397.381378 259.473755 447.342896 321.108521 447.342896 C 382.743286 447.342896 432.704834 397.381378 432.704834 335.746613 C 432.704834 274.111847 382.743286 224.15033 321.108521 224.15033 C 259.473755 224.15033 209.513962 274.108368 209.513962 335.746613 M 411.044861 219.725464 C 411.039093 234.128845 422.710663 245.809692 437.114014 245.815491 C 451.517395 245.821259 463.198273 234.149719 463.204041 219.746338 C 463.209808 205.342957 451.538269 193.662048 437.134857 193.656311 L 437.12442 193.656311 C 422.727936 193.663025 411.057312 205.328979 411.044861 219.725464 M 233.307236 512.649658 C 212.118439 511.684753 200.6017 508.155273 192.948196 505.173523 C 182.801498 501.223328 175.561813 496.518585 167.950058 488.917267 C 160.338287 481.315918 155.626572 474.083191 151.693771 463.936493 C 148.710281 456.286499 145.180832 444.766266 144.217621 423.577454 C 143.164001 400.669128 142.953629 393.787598 142.953629 335.750092 C 142.953629 277.712555 143.181396 270.850159 144.217621 247.922699 C 145.182571 226.733887 148.738083 215.236328 151.693771 207.56366 C 155.643951 197.416992 160.348709 190.177307 167.950058 182.565491 C 175.551376 174.953735 182.784119 170.242065 192.948196 166.309265 C 200.598221 163.325745 212.118439 159.796265 233.307236 158.833069 C 256.215546 157.77948 263.097076 157.569092 321.108521 157.569092 C 379.119965 157.569092 386.008453 157.793396 408.935913 158.836548 C 430.124695 159.801514 441.622314 163.356995 449.294891 166.312744 C 459.44162 170.245544 466.681305 174.967651 474.29306 182.56897 C 481.904816 190.170349 486.599182 197.420471 490.549377 207.567139 C 493.532867 215.217163 497.062347 226.737366 498.025482 247.926178 C 499.079102 270.853638 499.28952 277.716034 499.28952 335.753571 C 499.28952 393.791077 499.079102 400.653503 498.025482 423.580933 C 497.060577 444.769745 493.513733 456.286499 490.549377 463.939972 C 486.599182 474.08667 481.894379 481.326385 474.29306 488.920746 C 466.691772 496.515106 459.44162 501.226807 449.294891 505.177002 C 441.644897 508.160522 430.124695 511.689941 408.935913 512.653198 C 386.027588 513.706787 379.146057 513.917175 321.108521 513.917175 C 263.071014 513.917175 256.208588 513.706787 233.307236 512.653198 M 231.507751 119.732849 C 208.371689 120.786438 192.562225 124.454956 178.755692 129.827332 C 164.46582 135.375366 152.352707 142.818481 140.256989 154.895081 C 128.161285 166.97168 120.737305 179.086487 115.189301 193.393799 C 109.816902 207.208984 106.148376 223.009705 105.094757 246.145813 C 104.023758 269.31839 103.77861 276.726776 103.77861 335.746613 C 103.77861 394.766449 104.023758 402.174805 105.094757 425.347412 C 106.148376 448.485199 109.816902 464.28421 115.189301 478.099457 C 120.737305 492.389313 128.16301 504.526764 140.256989 516.598145 C 152.350967 528.669495 164.448425 536.102173 178.755692 541.665833 C 192.588303 547.038208 208.371689 550.706726 231.507751 551.760376 C 254.692505 552.813965 262.088684 553.076538 321.108521 553.076538 C 380.128387 553.076538 387.536713 552.831421 410.70932 551.760376 C 433.847137 550.706726 449.646088 547.038208 463.461395 541.665833 C 477.751251 536.102173 489.864349 528.674683 501.960052 516.598145 C 514.055786 504.521545 521.464111 492.389313 527.02771 478.099457 C 532.400146 464.28421 536.086121 448.483459 537.122314 425.347412 C 538.175964 402.15741 538.421082 394.766449 538.421082 335.746613 C 538.421082 276.726776 538.175964 269.31839 537.122314 246.145813 C 536.068726 223.007996 532.400146 207.200317 527.02771 193.393799 C 521.464111 179.103882 514.036682 166.990784 501.960052 154.895081 C 489.883453 142.799377 477.751251 135.375366 463.47876 129.827332 C 449.646088 124.454956 433.845398 120.769104 410.726715 119.732849 C 387.550629 118.674011 380.145782 118.416687 321.134613 118.416687 C 262.123444 118.416687 254.701202 118.661804 231.516449 119.732849"/>
    </g>
    <path id="path3" fill="#1185fe" stroke="none" visibility="hidden" d="M 203.346283 219.765442 C 272.531769 271.705505 346.948608 377.018402 374.270721 433.535431 C 401.59491 377.022583 476.007599 271.704498 545.195129 219.765442 C 595.115723 182.287537 676 153.289246 676 245.563293 C 676 263.991638 665.434265 400.371216 659.237366 422.511932 C 637.697021 499.488251 559.204773 519.12146 489.384613 507.238525 C 611.428894 528.01001 642.475769 596.812622 575.426331 665.615173 C 448.086212 796.28479 392.40152 632.829712 378.126587 590.946594 C 375.510925 583.268433 374.286926 579.676453 374.268951 582.730774 C 374.250824 579.676331 373.026947 583.268372 370.411285 590.946594 C 356.142609 632.829712 300.458984 796.289001 173.111542 665.615173 C 106.061058 596.812622 137.106918 528.005859 259.15329 507.238525 C 189.331055 519.12146 110.837738 499.488159 89.300514 422.511932 C 83.103409 400.369141 72.537895 263.989594 72.537895 245.563293 C 72.537895 153.289246 153.424225 182.287537 203.342743 219.765442 Z"/>
    <path id="Path-copy" fill="#1d9bf0" stroke="none" visibility="hidden" d="M 642.394104 242.606506 C 642.790588 248.341949 642.790588 254.077515 642.790588 259.865875 C 642.790588 436.23938 508.521515 639.651672 263.00473 639.651672 L 263.00473 639.545959 C 190.478302 639.651672 119.458427 618.876953 58.403011 579.70636 C 68.948944 580.975037 79.547745 581.609375 90.172974 581.635803 C 150.276871 581.688721 208.662766 561.521912 255.947678 524.386475 C 198.830475 523.302795 148.743881 486.061615 131.246613 431.693237 C 151.254822 435.552155 171.870941 434.759216 191.509109 429.393738 C 129.237869 416.812622 84.437462 362.100647 84.437462 298.560699 L 84.437462 296.869171 C 102.991966 307.203644 123.76667 312.939148 145.01712 313.573486 C 86.36692 274.376434 68.288177 196.352417 103.705597 135.349854 C 171.474472 218.739319 271.462616 269.433868 378.798584 274.799316 C 368.041199 228.439453 382.736786 179.859497 417.414154 147.270142 C 471.174622 96.734253 555.727112 99.324463 606.263062 153.058533 C 636.156372 147.164429 664.807495 136.195618 691.027039 120.654175 C 681.062561 151.551941 660.208557 177.797852 632.350342 194.475769 C 658.807739 191.356934 684.657166 184.273438 709 173.463196 C 691.079834 200.317017 668.507874 223.708374 642.394104 242.606506 Z"/>
    <path id="Path-copy-3" fill="#ffffff" stroke="#000000" stroke-width="60.5" visibility="hidden" d="M 547.179626 121.358215 L 633.937378 121.358215 L 443.44751 334.656403 L 666 624 L 491.352875 624 L 354.615112 448.168121 L 198.073975 624 L 111.316231 624 L 313.122284 395.863678 L 100 121.358215 L 278.985016 121.358215 L 402.520508 281.981018 Z M 516.814392 573.921265 L 564.908325 573.921265 L 253.712097 169.582153 L 202.034653 169.582153 Z"/>
    <path id="Path-copy-4" fill="#ffffff" stroke="none" visibility="hidden" d="M 547.179626 121.358215 L 633.937378 121.358215 L 443.44751 334.656403 L 666 624 L 491.352875 624 L 354.615112 448.168121 L 198.073975 624 L 111.316231 624 L 313.122284 395.863678 L 100 121.358215 L 278.985016 121.358215 L 402.520508 281.981018 Z M 516.814392 573.921265 L 564.908325 573.921265 L 253.712097 169.582153 L 202.034653 169.582153 Z"/>
    <g id="wrench-951-copy">
        <path id="path4" fill="#6363ff" stroke="#000000" stroke-width="60.525162" d="M 262 601.839661 C 262 575.05719 272.471466 548.811523 292.221619 529.066284 C 319.217773 502.065155 359.384033 492.334229 395.748352 503.645569 L 507.932556 391.461365 C 496.621185 355.116943 506.342194 314.940735 533.348328 287.929657 C 562.834351 258.443573 606.822449 249.637024 645.413208 265.495789 L 655.646118 269.700287 L 593.557922 331.788483 C 582.077576 343.273804 582.072632 361.955414 593.557922 373.440704 C 605.043213 384.921051 623.729797 384.921051 635.210144 373.440704 L 697.293457 311.357483 L 701.497925 321.590363 C 717.356689 360.186157 708.545105 404.16925 679.064026 433.655304 C 652.062927 460.656433 611.891663 470.382416 575.537292 459.071075 L 463.353088 571.250305 C 474.674377 607.599731 464.94342 647.77594 437.937347 674.782043 C 408.451233 704.273071 364.463196 713.069641 325.872375 697.215881 L 315.639496 693.006409 L 377.727722 630.923218 C 383.259155 625.391785 386.305634 617.996643 386.305634 610.094604 C 386.305634 602.192566 383.259155 594.802368 377.727722 589.265991 C 366.242401 577.785645 347.555786 577.785645 336.07547 589.265991 L 273.992249 651.354187 L 269.782776 641.116333 C 264.54953 628.373657 262.004974 615.039612 262 601.839661 Z M 279.77713 624.720825"/>
        <path id="path5" fill="#6363ff" stroke="none" d="M 262 601.839661 C 262 575.05719 272.471466 548.811523 292.221619 529.066284 C 319.217773 502.065155 359.384033 492.334229 395.748352 503.645569 L 507.932556 391.461365 C 496.621185 355.116943 506.342194 314.940735 533.348328 287.929657 C 562.834351 258.443573 606.822449 249.637024 645.413208 265.495789 L 655.646118 269.700287 L 593.557922 331.788483 C 582.077576 343.273804 582.072632 361.955414 593.557922 373.440704 C 605.043213 384.921051 623.729797 384.921051 635.210144 373.440704 L 697.293457 311.357483 L 701.497925 321.590363 C 717.356689 360.186157 708.545105 404.16925 679.064026 433.655304 C 652.062927 460.656433 611.891663 470.382416 575.537292 459.071075 L 463.353088 571.250305 C 474.674377 607.599731 464.94342 647.77594 437.937347 674.782043 C 408.451233 704.273071 364.463196 713.069641 325.872375 697.215881 L 315.639496 693.006409 L 377.727722 630.923218 C 383.259155 625.391785 386.305634 617.996643 386.305634 610.094604 C 386.305634 602.192566 383.259155 594.802368 377.727722 589.265991 C 366.242401 577.785645 347.555786 577.785645 336.07547 589.265991 L 273.992249 651.354187 L 269.782776 641.116333 C 264.54953 628.373657 262.004974 615.039612 262 601.839661 Z M 279.77713 624.720825"/>
        <mask id="mask1" maskUnits="userSpaceOnUse" maskContentUnits="userSpaceOnUse" mask-type="alpha">
            <path id="path6" fill="#6363ff" stroke="none" d="M 262 601.839661 C 262 575.05719 272.471466 548.811523 292.221619 529.066284 C 319.217773 502.065155 359.384033 492.334229 395.748352 503.645569 L 507.932556 391.461365 C 496.621185 355.116943 506.342194 314.940735 533.348328 287.929657 C 562.834351 258.443573 606.822449 249.637024 645.413208 265.495789 L 655.646118 269.700287 L 593.557922 331.788483 C 582.077576 343.273804 582.072632 361.955414 593.557922 373.440704 C 605.043213 384.921051 623.729797 384.921051 635.210144 373.440704 L 697.293457 311.357483 L 701.497925 321.590363 C 717.356689 360.186157 708.545105 404.16925 679.064026 433.655304 C 652.062927 460.656433 611.891663 470.382416 575.537292 459.071075 L 463.353088 571.250305 C 474.674377 607.599731 464.94342 647.77594 437.937347 674.782043 C 408.451233 704.273071 364.463196 713.069641 325.872375 697.215881 L 315.639496 693.006409 L 377.727722 630.923218 C 383.259155 625.391785 386.305634 617.996643 386.305634 610.094604 C 386.305634 602.192566 383.259155 594.802368 377.727722 589.265991 C 366.242401 577.785645 347.555786 577.785645 336.07547 589.265991 L 273.992249 651.354187 L 269.782776 641.116333 C 264.54953 628.373657 262.004974 615.039612 262 601.839661 Z M 279.77713 624.720825"/>
        </mask>
        <g id="Group" mask="url(#mask1)">
            <g id="1f3f3-fe0f-200d-26a7-fe0f">
                <path id="path7" fill="#5bcefa" stroke="none" visibility="hidden" d="M 773.968506 501.031494 C 806.647339 468.352661 806.647339 415.362335 773.968506 382.683472 L 359.750488 -31.534546 C 327.071655 -64.213379 274.081329 -64.213379 241.402496 -31.534546 L 222.170959 -12.302979 L 754.737 520.263 L 773.968506 501.031494 Z"/>
                <path id="path8" fill="#f5a9b8" stroke="none" visibility="hidden" d="M 677.426147 596.804626 L 756.216309 518.783691 L 223.650284 -13.782349 L 145.244751 64.62323 Z"/>
                <path id="path9" fill="#eeeeee" stroke="none" visibility="hidden" d="M 600.884521 674.115479 L 68.318535 141.549438 L 146.724106 63.14386 L 679.2901 595.7099 Z"/>
                <path id="path10" fill="#f5a9b8" stroke="none" visibility="hidden" d="M 521.029236 753.970764 L -11.536766 221.404724 L 69.79789 140.070068 L 602.363892 672.636108 Z"/>
                <path id="path11" fill="#5bcefa" stroke="none" visibility="hidden" d="M -24.880508 234.748474 C -57.559345 267.427307 -57.559345 320.417633 -24.880508 353.096466 L 389.337494 767.314514 C 422.016357 799.993347 475.006683 799.993347 507.685516 767.314514 L 525.437744 749.562256 L -7.128297 216.996277 L -24.880508 234.748474 Z"/>
            </g>
            <g id="1f3f3-fe0f-200d-1f308">
                <path id="path12" fill="#880082" stroke="none" visibility="hidden" d="M 724.742249 449.451385 C 757.522888 416.670776 757.522888 363.522858 724.742249 330.742218 L 309.260162 -84.739868 C 276.479492 -117.520508 223.331619 -117.520447 190.550995 -84.739868 L 183.131668 -77.320496 L 717.322937 456.870728 L 724.742249 449.451385 Z"/>
                <path id="path13" fill="#3558a0" stroke="none" visibility="hidden" d="M 651.587708 522.605957 L 117.396461 -11.585327 L 185.654236 -79.843079 L 719.845459 454.348145 Z"/>
                <path id="path14" fill="#138f3e" stroke="none" visibility="hidden" d="M 588.671875 585.52179 L 54.48061 51.330566 L 121.254517 -15.443359 L 655.44574 518.747864 Z"/>
                <path id="path15" fill="#fad220" stroke="none" visibility="hidden" d="M 524.420532 649.773132 L -9.770723 115.581848 L 57.003181 48.807983 L 591.194397 582.999207 Z"/>
                <path id="path16" fill="#ff7300" stroke="none" visibility="hidden" d="M 460.169189 714.024414 L -74.022057 179.833191 L -7.248154 113.059326 L 526.943115 647.250549 Z"/>
                <path id="path17" fill="#ff000e" stroke="none" visibility="hidden" d="M -76.544624 301.064941 L 338.937439 716.546997 C 371.718048 749.327637 424.865997 749.327637 457.646576 716.546997 L 462.543335 711.650269 L -71.647873 177.459045 L -76.544624 182.355774 C -109.325256 215.136414 -109.325287 268.284271 -76.544624 301.064941 Z"/>
            </g>
        </g>
    </g>
</svg>
